<?xml version="1.0" standalone="no"?>
<!DOCTYPE svg PUBLIC "-//W3C//DTD SVG 20010904//EN"
 "http://www.w3.org/TR/2001/REC-SVG-20010904/DTD/svg10.dtd">
<svg version="1.0" xmlns="http://www.w3.org/2000/svg"
 width="493.000000pt" height="506.000000pt" viewBox="0 0 493.000000 506.000000"
 preserveAspectRatio="xMidYMid meet">

<g transform="translate(0.000000,506.000000) scale(0.100000,-0.100000)"
fill="#000000" stroke="none">
<path d="M2217 4065 c-336 -55 -619 -199 -853 -434 -123 -125 -209 -245 -288
-406 -108 -217 -145 -368 -153 -620 -5 -182 6 -291 48 -447 l21 -78 369 0 369
0 0 180 0 180 -55 110 c-30 60 -55 116 -55 123 0 13 155 428 171 459 8 15 19
14 121 -13 62 -17 117 -34 122 -39 5 -5 25 -49 45 -97 l36 -88 85 -17 c47 -10
95 -20 108 -23 17 -4 22 -12 22 -35 l0 -30 -150 0 -150 0 -31 61 c-16 34 -32
59 -34 58 -2 -2 -26 -57 -54 -121 l-51 -117 0 -295 0 -296 282 0 282 0 -54 33
c-68 41 -100 96 -100 175 0 66 20 111 70 156 122 110 324 37 346 -125 12 -89
-39 -183 -120 -220 -40 -18 -30 -19 646 -19 l687 0 10 38 c32 121 41 166 52
247 16 122 6 383 -19 500 -129 599 -590 1057 -1194 1186 -125 27 -407 34 -531
14z m273 -877 c90 -167 165 -305 166 -307 2 -2 103 71 226 163 l221 167 86 -3
86 -3 0 -35 0 -35 -78 -3 -78 -3 -182 -133 c-175 -127 -182 -134 -182 -167 l0
-34 260 0 260 0 3 -297 3 -298 -276 0 -275 0 6 59 c12 106 -46 214 -140 264
-58 31 -174 31 -233 -1 -101 -53 -148 -136 -141 -251 l4 -71 -68 0 c-65 0 -68
1 -68 25 0 22 -4 24 -57 27 l-58 3 0 180 c0 137 3 180 13 181 6 1 32 2 56 3
41 1 45 3 48 29 3 26 11 30 248 108 134 45 246 86 247 91 2 6 -54 118 -125
249 -222 410 -200 363 -178 379 11 8 25 15 32 15 6 0 85 -136 174 -302z m-381
166 c43 -36 58 -89 38 -137 -34 -81 -138 -101 -201 -38 -27 27 -31 39 -31 82
0 46 4 54 37 85 49 44 110 48 157 8z"/>
<path d="M3184 2648 c-7 -11 15 -18 48 -15 25 2 40 15 21 18 -30 5 -65 4 -69
-3z"/>
<path d="M2435 2339 c-11 -17 1 -21 15 -4 8 9 8 15 2 15 -6 0 -14 -5 -17 -11z"/>
<path d="M2470 2335 c-6 -8 1 -10 26 -7 36 4 39 15 4 17 -11 1 -25 -3 -30 -10z"/>
<path d="M2526 2312 c-3 -5 -3 -17 -2 -28 2 -10 -2 -23 -8 -27 -7 -6 -6 -7 4
-4 9 2 15 16 16 35 1 33 -1 38 -10 24z"/>
<path d="M2451 2234 c0 -11 3 -14 6 -6 3 7 2 16 -1 19 -3 4 -6 -2 -5 -13z"/>
<path d="M1160 1952 c0 -4 5 -13 10 -18 13 -13 -4 -142 -19 -157 -19 -19 -12
-27 24 -27 36 0 43 8 24 27 -5 5 -7 22 -3 37 5 22 12 26 40 26 19 0 34 5 34
10 0 6 -13 10 -29 10 -37 0 -42 8 -32 46 6 23 14 30 39 32 22 2 34 -2 38 -12
9 -25 24 -19 24 9 0 24 -2 25 -75 25 -41 0 -75 -4 -75 -8z"/>
<path d="M1360 1952 c0 -4 4 -12 9 -17 11 -13 -3 -143 -18 -158 -19 -19 -12
-27 24 -27 35 0 43 8 26 26 -13 12 4 157 18 162 24 8 9 22 -24 22 -19 0 -35
-4 -35 -8z"/>
<path d="M1490 1950 c0 -5 4 -10 10 -10 5 0 19 -18 30 -40 l21 -41 -28 -39
c-15 -21 -36 -41 -45 -43 -34 -9 -18 -27 23 -27 36 0 40 2 34 20 -4 13 1 29
14 45 l19 26 16 -23 c9 -12 13 -31 10 -45 -6 -21 -3 -23 30 -23 37 0 51 22 22
33 -22 9 -48 65 -41 87 3 10 21 32 40 49 19 17 35 33 35 36 0 3 -16 5 -35 5
-30 0 -35 -3 -35 -23 0 -13 -8 -31 -18 -41 -18 -15 -19 -15 -31 10 -9 20 -9
30 0 40 9 12 4 14 -30 14 -22 0 -41 -4 -41 -10z"/>
<path d="M1842 1945 c-54 -23 -79 -107 -46 -153 22 -32 55 -43 98 -31 49 13
46 31 -3 23 -32 -5 -43 -2 -61 16 -45 45 -4 130 63 130 17 0 36 -8 43 -17 12
-16 13 -16 14 8 0 40 -48 50 -108 24z"/>
<path d="M2047 1865 c-26 -52 -51 -95 -57 -95 -5 0 -10 -4 -10 -10 0 -5 13
-10 29 -10 25 0 30 4 33 28 3 25 7 27 52 30 l49 3 -6 -30 c-6 -29 -5 -31 23
-31 29 0 40 13 21 24 -5 3 -19 46 -31 96 -30 119 -41 119 -103 -5z m78 -2 c6
-32 6 -33 -29 -33 -20 0 -36 2 -36 5 0 3 9 24 21 47 23 45 31 41 44 -19z"/>
<path d="M2240 1950 c0 -5 5 -10 11 -10 15 0 1 -128 -17 -157 -20 -31 -18 -33
21 -33 36 0 43 8 25 26 -7 7 -8 19 -1 37 13 33 34 27 51 -13 16 -38 36 -54 57
-45 16 6 16 8 2 18 -8 7 -23 24 -32 38 -16 25 -16 26 8 49 31 29 32 64 3 84
-25 18 -128 22 -128 6z m101 -20 c39 -21 16 -70 -33 -70 -26 0 -28 3 -22 28
12 58 17 62 55 42z"/>
<path d="M2524 1875 c-1 -72 -4 -88 -20 -100 -18 -13 -18 -14 -1 -21 27 -10
116 3 144 21 26 18 53 71 53 105 0 12 -13 35 -29 51 -26 25 -37 29 -88 29
l-58 0 -1 -85z m120 44 c30 -23 33 -56 11 -98 -16 -32 -33 -41 -77 -41 l-30 0
7 73 c4 39 9 75 12 80 8 14 51 7 77 -14z"/>
<path d="M2754 1874 c-1 -70 -4 -88 -18 -96 -23 -13 -11 -28 23 -28 34 0 44 9
31 26 -14 16 -1 141 16 159 21 20 17 25 -18 25 l-33 0 -1 -86z"/>
<path d="M2914 1950 c-62 -25 -86 -125 -41 -168 17 -16 36 -22 68 -22 56 0 66
7 74 53 7 36 7 37 -24 37 -17 0 -31 -4 -31 -10 0 -5 7 -10 16 -10 10 0 14 -7
12 -22 -4 -30 -61 -38 -89 -12 -28 25 -25 85 4 112 28 27 107 32 107 7 0 -8 5
-15 10 -15 6 0 10 11 10 24 0 16 -7 26 -22 30 -31 8 -69 6 -94 -4z"/>
<path d="M3085 1873 c-1 -59 -5 -88 -13 -91 -24 -8 -12 -32 16 -32 35 0 45 9
32 26 -14 16 -1 141 16 159 21 20 17 25 -18 25 l-33 0 0 -87z"/>
<path d="M3180 1940 c0 -17 3 -19 19 -10 40 21 44 14 37 -66 -4 -56 -11 -80
-23 -90 -17 -12 -17 -13 0 -19 9 -4 29 -4 43 -1 21 6 23 10 14 21 -8 9 -9 36
-4 84 5 57 10 72 26 77 10 3 25 0 33 -6 12 -10 15 -9 15 9 0 20 -5 21 -80 21
-74 0 -80 -2 -80 -20z"/>
<path d="M3445 1883 c-21 -43 -48 -88 -58 -100 -18 -20 -18 -23 -3 -29 24 -9
44 2 48 28 3 20 10 23 52 26 48 3 48 3 44 -23 -6 -29 10 -42 38 -31 12 5 13
10 6 19 -6 7 -21 52 -33 100 -28 113 -41 114 -94 10z m70 -20 c6 -32 6 -33
-29 -33 -20 0 -36 2 -36 5 0 3 9 24 21 47 23 45 31 41 44 -19z"/>
<path d="M3630 1950 c0 -5 5 -10 10 -10 14 0 2 -116 -16 -153 -16 -35 -8 -39
67 -35 49 3 54 5 56 28 1 14 0 19 -3 13 -5 -12 -65 -18 -76 -8 -8 8 12 150 22
153 23 8 7 22 -25 22 -19 0 -35 -4 -35 -10z"/>
<path d="M1250 1614 c0 -15 112 -134 189 -201 246 -215 552 -346 869 -371 413
-33 806 88 1114 345 77 64 218 209 218 225 0 4 -538 8 -1195 8 -657 0 -1195
-3 -1195 -6z"/>
</g>
</svg>
